{
	"asset":{
		"generator":"Khronos glTF Blender I/O v3.6.28",
		"version":"2.0"
	},
	"extensionsUsed":[
		"KHR_materials_emissive_strength"
	],
	"scene":0,
	"scenes":[
		{
			"name":"Scene",
			"nodes":[
				0,
				1
			]
		}
	],
	"nodes":[
		{
			"mesh":0,
			"name":"Cube"
		},
		{
			"name":"Material_Preview_Dummy"
		}
	],
	"materials":[
		{
			"doubleSided":true,
			"emissiveFactor":[
				1,
				1,
				1
			],
			"emissiveTexture":{
				"index":0
			},
			"extensions":{
				"KHR_materials_emissive_strength":{
					"emissiveStrength":12
				}
			},
			"name":"Material",
			"normalTexture":{
				"index":1,
				"scale":0.20000000298023224
			},
			"pbrMetallicRoughness":{
				"baseColorTexture":{
					"index":2
				},
				"metallicRoughnessTexture":{
					"index":3
				}
			}
		}
	],
	"meshes":[
		{
			"name":"Cube.002",
			"primitives":[
				{
					"attributes":{
						"POSITION":0,
						"NORMAL":1,
						"TEXCOORD_0":2,
						"TEXCOORD_1":3
					},
					"indices":4,
					"material":0
				}
			]
		}
	],
	"textures":[
		{
			"sampler":0,
			"source":0
		},
		{
			"sampler":0,
			"source":1
		},
		{
			"sampler":0,
			"source":2
		},
		{
			"sampler":0,
			"source":3
		}
	],
	"images":[
		{
			"mimeType":"image/png",
			"name":"Crate - Emission",
			"uri":"Crate%20-%20Emission.png"
		},
		{
			"mimeType":"image/png",
			"name":"Crate - Normal",
			"uri":"Crate%20-%20Normal.png"
		},
		{
			"mimeType":"image/png",
			"name":"Crate - Albedo",
			"uri":"Crate%20-%20Albedo.png"
		},
		{
			"mimeType":"image/png",
			"name":"Crate - Metallic-Crate - Roughness",
			"uri":"Crate%20-%20Metallic-Crate%20-%20Roughness.png"
		}
	],
	"accessors":[
		{
			"bufferView":0,
			"componentType":5126,
			"count":436,
			"max":[
				1,
				0.30759623646736145,
				1
			],
			"min":[
				-1,
				-1,
				-1
			],
			"type":"VEC3"
		},
		{
			"bufferView":1,
			"componentType":5126,
			"count":436,
			"type":"VEC3"
		},
		{
			"bufferView":2,
			"componentType":5126,
			"count":436,
			"type":"VEC2"
		},
		{
			"bufferView":3,
			"componentType":5126,
			"count":436,
			"type":"VEC2"
		},
		{
			"bufferView":4,
			"componentType":5123,
			"count":756,
			"type":"SCALAR"
		}
	],
	"bufferViews":[
		{
			"buffer":0,
			"byteLength":5232,
			"byteOffset":0,
			"target":34962
		},
		{
			"buffer":0,
			"byteLength":5232,
			"byteOffset":5232,
			"target":34962
		},
		{
			"buffer":0,
			"byteLength":3488,
			"byteOffset":10464,
			"target":34962
		},
		{
			"buffer":0,
			"byteLength":3488,
			"byteOffset":13952,
			"target":34962
		},
		{
			"buffer":0,
			"byteLength":1512,
			"byteOffset":17440,
			"target":34963
		}
	],
	"samplers":[
		{
			"magFilter":9729,
			"minFilter":9987
		}
	],
	"buffers":[
		{
			"byteLength":18952,
			"uri":"Crate%20-%20Texture.bin"
		}
	]
}
