{
	"asset":{
		"generator":"Khronos glTF Blender I/O v3.6.28",
		"version":"2.0"
	},
	"extensionsUsed":[
		"KHR_materials_emissive_strength"
	],
	"scene":0,
	"scenes":[
		{
			"name":"Scene",
			"nodes":[
				0,
				1
			]
		}
	],
	"nodes":[
		{
			"mesh":0,
			"name":"Cube.001"
		},
		{
			"name":"Material_Preview_Dummy"
		}
	],
	"materials":[
		{
			"doubleSided":true,
			"emissiveFactor":[
				1,
				1,
				1
			],
			"emissiveTexture":{
				"index":0
			},
			"extensions":{
				"KHR_materials_emissive_strength":{
					"emissiveStrength":12
				}
			},
			"name":"Material.003",
			"normalTexture":{
				"index":1,
				"scale":0.6000000238418579
			},
			"pbrMetallicRoughness":{
				"baseColorTexture":{
					"index":2
				},
				"metallicRoughnessTexture":{
					"index":3
				}
			}
		}
	],
	"meshes":[
		{
			"name":"Cube.006",
			"primitives":[
				{
					"attributes":{
						"POSITION":0,
						"NORMAL":1,
						"TEXCOORD_0":2
					},
					"indices":3,
					"material":0
				}
			]
		}
	],
	"textures":[
		{
			"sampler":0,
			"source":0
		},
		{
			"sampler":0,
			"source":1
		},
		{
			"sampler":0,
			"source":2
		},
		{
			"sampler":0,
			"source":3
		}
	],
	"images":[
		{
			"mimeType":"image/png",
			"name":"Lid - Emmission",
			"uri":"Lid%20-%20Emmission.png"
		},
		{
			"mimeType":"image/png",
			"name":"Lid - Normal",
			"uri":"Lid%20-%20Normal.png"
		},
		{
			"mimeType":"image/png",
			"name":"Lid - Albedo",
			"uri":"Lid%20-%20Albedo.png"
		},
		{
			"mimeType":"image/png",
			"name":"Lid - Metallic-Lid - Roughness",
			"uri":"Lid%20-%20Metallic-Lid%20-%20Roughness.png"
		}
	],
	"accessors":[
		{
			"bufferView":0,
			"componentType":5126,
			"count":639,
			"max":[
				1.0323723554611206,
				1,
				1
			],
			"min":[
				-1.0323723554611206,
				0.11389690637588501,
				-1
			],
			"type":"VEC3"
		},
		{
			"bufferView":1,
			"componentType":5126,
			"count":639,
			"type":"VEC3"
		},
		{
			"bufferView":2,
			"componentType":5126,
			"count":639,
			"type":"VEC2"
		},
		{
			"bufferView":3,
			"componentType":5123,
			"count":1128,
			"type":"SCALAR"
		}
	],
	"bufferViews":[
		{
			"buffer":0,
			"byteLength":7668,
			"byteOffset":0,
			"target":34962
		},
		{
			"buffer":0,
			"byteLength":7668,
			"byteOffset":7668,
			"target":34962
		},
		{
			"buffer":0,
			"byteLength":5112,
			"byteOffset":15336,
			"target":34962
		},
		{
			"buffer":0,
			"byteLength":2256,
			"byteOffset":20448,
			"target":34963
		}
	],
	"samplers":[
		{
			"magFilter":9729,
			"minFilter":9987
		}
	],
	"buffers":[
		{
			"byteLength":22704,
			"uri":"Lid%20-%20Texture.bin"
		}
	]
}
