{
	"asset":{
		"generator":"Khronos glTF Blender I/O v3.6.28",
		"version":"2.0"
	},
	"scene":0,
	"scenes":[
		{
			"name":"Scene",
			"nodes":[
				0,
				1
			]
		}
	],
	"nodes":[
		{
			"mesh":0,
			"name":"Pipes"
		},
		{
			"name":"Material_Preview_Dummy"
		}
	],
	"materials":[
		{
			"doubleSided":true,
			"name":"Material.004",
			"normalTexture":{
				"index":0
			},
			"pbrMetallicRoughness":{
				"baseColorTexture":{
					"index":1
				},
				"metallicRoughnessTexture":{
					"index":2
				}
			}
		}
	],
	"meshes":[
		{
			"name":"Plane.002",
			"primitives":[
				{
					"attributes":{
						"POSITION":0,
						"NORMAL":1,
						"TEXCOORD_0":2,
						"TEXCOORD_1":3
					},
					"indices":4,
					"material":0
				}
			]
		}
	],
	"textures":[
		{
			"sampler":0,
			"source":0
		},
		{
			"sampler":0,
			"source":1
		},
		{
			"sampler":0,
			"source":2
		}
	],
	"images":[
		{
			"mimeType":"image/png",
			"name":"Pipes - Normal",
			"uri":"Pipes%20-%20Normal.png"
		},
		{
			"mimeType":"image/png",
			"name":"Pipes - Albedo",
			"uri":"Pipes%20-%20Albedo.png"
		},
		{
			"mimeType":"image/png",
			"name":"Pipes - Metallic-Pipes - Rougness",
			"uri":"Pipes%20-%20Metallic-Pipes%20-%20Rougness.png"
		}
	],
	"accessors":[
		{
			"bufferView":0,
			"componentType":5126,
			"count":3227,
			"max":[
				1,
				1,
				1.4999998807907104
			],
			"min":[
				-1,
				-1,
				-1.6876317262649536
			],
			"type":"VEC3"
		},
		{
			"bufferView":1,
			"componentType":5126,
			"count":3227,
			"type":"VEC3"
		},
		{
			"bufferView":2,
			"componentType":5126,
			"count":3227,
			"type":"VEC2"
		},
		{
			"bufferView":3,
			"componentType":5126,
			"count":3227,
			"type":"VEC2"
		},
		{
			"bufferView":4,
			"componentType":5123,
			"count":8736,
			"type":"SCALAR"
		}
	],
	"bufferViews":[
		{
			"buffer":0,
			"byteLength":38724,
			"byteOffset":0,
			"target":34962
		},
		{
			"buffer":0,
			"byteLength":38724,
			"byteOffset":38724,
			"target":34962
		},
		{
			"buffer":0,
			"byteLength":25816,
			"byteOffset":77448,
			"target":34962
		},
		{
			"buffer":0,
			"byteLength":25816,
			"byteOffset":103264,
			"target":34962
		},
		{
			"buffer":0,
			"byteLength":17472,
			"byteOffset":129080,
			"target":34963
		}
	],
	"samplers":[
		{
			"magFilter":9729,
			"minFilter":9987
		}
	],
	"buffers":[
		{
			"byteLength":146552,
			"uri":"Hall%20-%20Pipes%20-%20Texture.bin"
		}
	]
}
