{
	"asset":{
		"generator":"Khronos glTF Blender I/O v3.6.28",
		"version":"2.0"
	},
	"extensionsUsed":[
		"KHR_materials_specular",
		"KHR_materials_ior"
	],
	"scene":0,
	"scenes":[
		{
			"name":"Scene",
			"nodes":[
				27
			]
		}
	],
	"nodes":[
		{
			"name":"Thumb_Tip_L",
			"rotation":[
				-0.07576869428157806,
				-0.01925703138113022,
				-0.03371240198612213,
				0.9963693022727966
			],
			"scale":[
				1,
				1.0000001192092896,
				1
			],
			"translation":[
				9.313225746154785e-10,
				0.030749447643756866,
				-1.7695128917694092e-08
			]
		},
		{
			"children":[
				0
			],
			"name":"Thumb_Distal_L",
			"rotation":[
				0.05564062297344208,
				0.010326195508241653,
				0.013984780758619308,
				0.9982995390892029
			],
			"scale":[
				0.9999999403953552,
				0.9999999403953552,
				1
			],
			"translation":[
				-1.6298145055770874e-09,
				0.042147889733314514,
				1.3969838619232178e-09
			]
		},
		{
			"children":[
				1
			],
			"name":"Thumb_Proximal_L",
			"rotation":[
				-0.04595037177205086,
				-0.027135709300637245,
				-0.07525718212127686,
				0.9957351684570312
			],
			"scale":[
				1,
				0.9999999403953552,
				0.9999998807907104
			],
			"translation":[
				-1.7462298274040222e-10,
				0.04491649195551872,
				-4.729372449219227e-09
			]
		},
		{
			"children":[
				2
			],
			"name":"Thumb_Metacarpal_L",
			"rotation":[
				0.3235369622707367,
				-2.5616138373152353e-05,
				-0.02722041867673397,
				0.9458239674568176
			],
			"scale":[
				1,
				1,
				0.9999999403953552
			],
			"translation":[
				0.009999997913837433,
				0.02717285417020321,
				0.01999996416270733
			]
		},
		{
			"name":"Index_Tip_L",
			"rotation":[
				-0.0522884838283062,
				-0.0005571907386183739,
				0.10362064093351364,
				0.9932413697242737
			],
			"scale":[
				0.9999999403953552,
				0.9999998807907104,
				0.9999998211860657
			],
			"translation":[
				1.5832483768463135e-08,
				0.027394985780119896,
				-6.1409082263708115e-09
			]
		},
		{
			"children":[
				4
			],
			"name":"Index_Distal_L",
			"rotation":[
				0.014226051978766918,
				-0.011990748345851898,
				-0.13454152643680573,
				0.9907333254814148
			],
			"scale":[
				0.9999999403953552,
				0.9999999403953552,
				1
			],
			"translation":[
				6.984919309616089e-09,
				0.03134565427899361,
				-8.731149137020111e-11
			]
		},
		{
			"children":[
				5
			],
			"name":"Index_Intermediate_L",
			"rotation":[
				-0.013683225028216839,
				-0.024668218567967415,
				-0.23507095873355865,
				0.9715688228607178
			],
			"scale":[
				1,
				1,
				1.0000001192092896
			],
			"translation":[
				-6.170012056827545e-09,
				0.03811632841825485,
				4.423782229423523e-09
			]
		},
		{
			"children":[
				6
			],
			"name":"Index_Proximal_L",
			"rotation":[
				0.11122287809848785,
				-0.0027780996169894934,
				0.11757417768239975,
				0.9868121147155762
			],
			"translation":[
				-6.417621989385225e-11,
				0.08036760985851288,
				5.1465178785292665e-09
			]
		},
		{
			"children":[
				7
			],
			"name":"Index_Metacarpal_L",
			"rotation":[
				-0.000588834926020354,
				2.1036546968389302e-05,
				0.02521963231265545,
				0.9996817708015442
			],
			"scale":[
				0.9999999403953552,
				0.9999999403953552,
				0.9999999403953552
			],
			"translation":[
				-0.010000001639127731,
				0.02717723324894905,
				0.022405143827199936
			]
		},
		{
			"name":"Middle_Tip_L",
			"rotation":[
				0.013688214123249054,
				7.989331788849086e-05,
				0.16841095685958862,
				0.9856218099594116
			],
			"scale":[
				1,
				0.9999999403953552,
				1
			],
			"translation":[
				1.9725121092051268e-08,
				0.023346584290266037,
				2.473825588822365e-10
			]
		},
		{
			"children":[
				9
			],
			"name":"Middle_Distal_L",
			"rotation":[
				-0.013931488618254662,
				-0.00014241949247661978,
				-0.16861224174499512,
				0.985584020614624
			],
			"scale":[
				1,
				1,
				0.9999999403953552
			],
			"translation":[
				3.7071004044264555e-09,
				0.032416652888059616,
				4.0745362639427185e-10
			]
		},
		{
			"children":[
				10
			],
			"name":"Middle_Intermediate_L",
			"rotation":[
				0.03945547714829445,
				0.0049286806024611,
				-0.13782714307308197,
				0.9896578788757324
			],
			"scale":[
				1,
				1,
				1.0000001192092896
			],
			"translation":[
				-3.066816134378314e-09,
				0.045003343373537064,
				4.2928149923682213e-10
			]
		},
		{
			"children":[
				11
			],
			"name":"Middle_Proximal_L",
			"rotation":[
				-0.0119466008618474,
				0.0009667634149082005,
				-0.010500826872885227,
				0.9998730421066284
			],
			"scale":[
				0.9999999403953552,
				0.9999998807907104,
				1
			],
			"translation":[
				-1.5825207810848951e-09,
				0.0804632306098938,
				2.837623469531536e-10
			]
		},
		{
			"children":[
				12
			],
			"name":"Middle_Metacarpal_L",
			"rotation":[
				-0.03585466369986534,
				4.2007683077827096e-05,
				0.04997759684920311,
				0.9981065392494202
			],
			"translation":[
				-0.009999997913837433,
				0.0271457526832819,
				0.0035275877453386784
			]
		},
		{
			"name":"Ring_Tip_L",
			"rotation":[
				0.03305170685052872,
				-0.006719700060784817,
				0.12635119259357452,
				0.9914120435714722
			],
			"scale":[
				1,
				0.9999999403953552,
				0.9999998807907104
			],
			"translation":[
				-1.4406396076083183e-08,
				0.027049370110034943,
				5.533365765586495e-09
			]
		},
		{
			"children":[
				14
			],
			"name":"Ring_Distal_L",
			"rotation":[
				-0.011351855471730232,
				0.012621389701962471,
				-0.13198412954807281,
				0.9911065101623535
			],
			"translation":[
				6.752088665962219e-09,
				0.027797574177384377,
				2.473825588822365e-09
			]
		},
		{
			"children":[
				15
			],
			"name":"Ring_Intermediate_L",
			"rotation":[
				0.01732620969414711,
				0.018608417361974716,
				-0.16082894802093506,
				0.9866547584533691
			],
			"scale":[
				1.0000001192092896,
				1.0000001192092896,
				1
			],
			"translation":[
				-3.899913281202316e-09,
				0.04013117402791977,
				4.656612873077393e-10
			]
		},
		{
			"children":[
				16
			],
			"name":"Ring_Proximal_L",
			"rotation":[
				-0.05105669051408768,
				-0.002022962085902691,
				0.04180449619889259,
				0.9978184103965759
			],
			"scale":[
				0.9999999403953552,
				0.9999999403953552,
				0.9999999403953552
			],
			"translation":[
				-9.458744898438454e-10,
				0.0739438384771347,
				-3.2887328416109085e-09
			]
		},
		{
			"children":[
				17
			],
			"name":"Ring_Metacarpal_L",
			"rotation":[
				-0.07119499146938324,
				1.5732666724943556e-05,
				0.018085600808262825,
				0.9972984790802002
			],
			"scale":[
				1,
				0.9999999403953552,
				0.9999999403953552
			],
			"translation":[
				-0.009999997913837433,
				0.027118019759655,
				-0.013099986128509045
			]
		},
		{
			"name":"Little_Tip_L",
			"rotation":[
				0.01583615131676197,
				-0.019339706748723984,
				0.15377692878246307,
				0.9877893924713135
			],
			"scale":[
				1,
				0.9999999403953552,
				1
			],
			"translation":[
				-8.381903171539307e-09,
				0.019765110686421394,
				-3.550667315721512e-09
			]
		},
		{
			"children":[
				19
			],
			"name":"Little_Distal_L",
			"rotation":[
				-0.018054630607366562,
				0.011455271393060684,
				-0.10707488656044006,
				0.9940210580825806
			],
			"translation":[
				8.556526154279709e-09,
				0.01802436262369156,
				8.149072527885437e-10
			]
		},
		{
			"children":[
				20
			],
			"name":"Little_Intermediate_L",
			"rotation":[
				0.0449257530272007,
				0.032807957381010056,
				-0.18505951762199402,
				0.9811515212059021
			],
			"scale":[
				1,
				1,
				1.0000001192092896
			],
			"translation":[
				-2.8230715543031693e-09,
				0.03312354534864426,
				5.515175871551037e-09
			]
		},
		{
			"children":[
				21
			],
			"name":"Little_Proximal_L",
			"rotation":[
				-0.08928597718477249,
				0.0031680988613516092,
				-0.0067391241900622845,
				0.9959781765937805
			],
			"scale":[
				0.9999999403953552,
				1,
				0.9999999403953552
			],
			"translation":[
				9.604264050722122e-10,
				0.06571120023727417,
				7.228663889691234e-09
			]
		},
		{
			"children":[
				22
			],
			"name":"Little_Metacarpal_L",
			"rotation":[
				-0.0917695164680481,
				2.4561773898312822e-05,
				0.02844770811498165,
				0.9953738451004028
			],
			"translation":[
				-4.532770270238018e-10,
				0.027089647948741913,
				-0.029999952763319016
			]
		},
		{
			"name":"Palm_L",
			"rotation":[
				0.7065238952636719,
				-6.488860435638344e-06,
				-8.69083305587992e-06,
				0.7076891660690308
			],
			"scale":[
				1,
				0.9999999403953552,
				0.9999999403953552
			],
			"translation":[
				0.030781937763094902,
				0.06705548614263535,
				-0.04206528142094612
			]
		},
		{
			"children":[
				3,
				8,
				13,
				18,
				23,
				24
			],
			"name":"Wrist_L",
			"rotation":[
				-0.7065169215202332,
				6.472749646491138e-06,
				6.472751010733191e-06,
				0.7076961994171143
			],
			"scale":[
				1,
				0.9999999403953552,
				1
			],
			"translation":[
				3.8642522071086205e-08,
				-1.8697472114581615e-05,
				0.027175573632121086
			]
		},
		{
			"mesh":0,
			"name":"mesh_Hand_Nails_low_L",
			"skin":0
		},
		{
			"children":[
				26,
				25
			],
			"name":"Armature"
		}
	],
	"materials":[
		{
			"doubleSided":true,
			"extensions":{
				"KHR_materials_specular":{
					"specularColorFactor":[
						2.371357614441398,
						2.371357614441398,
						2.371357614441398
					]
				},
				"KHR_materials_ior":{
					"ior":1.4500000476837158
				}
			},
			"name":"Material.001",
			"pbrMetallicRoughness":{
				"baseColorTexture":{
					"index":0
				},
				"metallicRoughnessTexture":{
					"index":1
				}
			}
		}
	],
	"meshes":[
		{
			"name":"mesh_Hand_Nails_low_L",
			"primitives":[
				{
					"attributes":{
						"POSITION":0,
						"NORMAL":1,
						"TEXCOORD_0":2,
						"JOINTS_0":3,
						"WEIGHTS_0":4
					},
					"indices":5,
					"material":0
				}
			]
		}
	],
	"textures":[
		{
			"sampler":0,
			"source":0
		},
		{
			"sampler":0,
			"source":1
		}
	],
	"images":[
		{
			"mimeType":"image/png",
			"name":"Hands - Albedo",
			"uri":"Hands%20-%20Albedo.png"
		},
		{
			"mimeType":"image/png",
			"name":"Hands - Metallic-Hands - Roughness",
			"uri":"Hands%20-%20Metallic-Hands%20-%20Roughness.png"
		}
	],
	"skins":[
		{
			"inverseBindMatrices":6,
			"joints":[
				25,
				3,
				2,
				1,
				0,
				8,
				7,
				6,
				5,
				4,
				13,
				12,
				11,
				10,
				9,
				18,
				17,
				16,
				15,
				14,
				23,
				22,
				21,
				20,
				19,
				24
			],
			"name":"Armature"
		}
	],
	"accessors":[
		{
			"bufferView":0,
			"componentType":5126,
			"count":1186,
			"max":[
				0.035150498151779175,
				0.09175886958837509,
				0.025768805295228958
			],
			"min":[
				-0.03589888662099838,
				-0.06838366389274597,
				-0.18577709794044495
			],
			"type":"VEC3"
		},
		{
			"bufferView":1,
			"componentType":5126,
			"count":1186,
			"type":"VEC3"
		},
		{
			"bufferView":2,
			"componentType":5126,
			"count":1186,
			"type":"VEC2"
		},
		{
			"bufferView":3,
			"componentType":5121,
			"count":1186,
			"type":"VEC4"
		},
		{
			"bufferView":4,
			"componentType":5126,
			"count":1186,
			"type":"VEC4"
		},
		{
			"bufferView":5,
			"componentType":5123,
			"count":3234,
			"type":"SCALAR"
		},
		{
			"bufferView":6,
			"componentType":5126,
			"count":26,
			"type":"MAT4"
		}
	],
	"bufferViews":[
		{
			"buffer":0,
			"byteLength":14232,
			"byteOffset":0,
			"target":34962
		},
		{
			"buffer":0,
			"byteLength":14232,
			"byteOffset":14232,
			"target":34962
		},
		{
			"buffer":0,
			"byteLength":9488,
			"byteOffset":28464,
			"target":34962
		},
		{
			"buffer":0,
			"byteLength":4744,
			"byteOffset":37952,
			"target":34962
		},
		{
			"buffer":0,
			"byteLength":18976,
			"byteOffset":42696,
			"target":34962
		},
		{
			"buffer":0,
			"byteLength":6468,
			"byteOffset":61672,
			"target":34963
		},
		{
			"buffer":0,
			"byteLength":1664,
			"byteOffset":68140
		}
	],
	"samplers":[
		{
			"magFilter":9729,
			"minFilter":9987
		}
	],
	"buffers":[
		{
			"byteLength":69804,
			"uri":"LeftHand.bin"
		}
	]
}
