{
	"asset":{
		"generator":"Khronos glTF Blender I/O v3.6.28",
		"version":"2.0"
	},
	"scene":0,
	"scenes":[
		{
			"name":"Scene",
			"nodes":[
				0,
				1
			]
		}
	],
	"nodes":[
		{
			"mesh":0,
			"name":"Window"
		},
		{
			"name":"Material_Preview_Dummy"
		}
	],
	"materials":[
		{
			"doubleSided":true,
			"name":"Material.001",
			"normalTexture":{
				"index":0
			},
			"pbrMetallicRoughness":{
				"baseColorTexture":{
					"index":1
				},
				"metallicRoughnessTexture":{
					"index":2
				}
			}
		}
	],
	"meshes":[
		{
			"name":"Plane.006",
			"primitives":[
				{
					"attributes":{
						"POSITION":0,
						"NORMAL":1,
						"TEXCOORD_0":2
					},
					"indices":3,
					"material":0
				}
			]
		}
	],
	"textures":[
		{
			"sampler":0,
			"source":0
		},
		{
			"sampler":0,
			"source":1
		},
		{
			"sampler":0,
			"source":2
		}
	],
	"images":[
		{
			"mimeType":"image/png",
			"name":"Window - Normal",
			"uri":"Window%20-%20Normal.png"
		},
		{
			"mimeType":"image/png",
			"name":"Window - Albedo",
			"uri":"Window%20-%20Albedo.png"
		},
		{
			"mimeType":"image/png",
			"name":"Window - Metallic-Window - Roughness",
			"uri":"Window%20-%20Metallic-Window%20-%20Roughness.png"
		}
	],
	"accessors":[
		{
			"bufferView":0,
			"componentType":5126,
			"count":136,
			"max":[
				1,
				1,
				1.4999998807907104
			],
			"min":[
				-1,
				-1,
				-1.4999998807907104
			],
			"type":"VEC3"
		},
		{
			"bufferView":1,
			"componentType":5126,
			"count":136,
			"type":"VEC3"
		},
		{
			"bufferView":2,
			"componentType":5126,
			"count":136,
			"type":"VEC2"
		},
		{
			"bufferView":3,
			"componentType":5123,
			"count":276,
			"type":"SCALAR"
		}
	],
	"bufferViews":[
		{
			"buffer":0,
			"byteLength":1632,
			"byteOffset":0,
			"target":34962
		},
		{
			"buffer":0,
			"byteLength":1632,
			"byteOffset":1632,
			"target":34962
		},
		{
			"buffer":0,
			"byteLength":1088,
			"byteOffset":3264,
			"target":34962
		},
		{
			"buffer":0,
			"byteLength":552,
			"byteOffset":4352,
			"target":34963
		}
	],
	"samplers":[
		{
			"magFilter":9729,
			"minFilter":9987
		}
	],
	"buffers":[
		{
			"byteLength":4904,
			"uri":"Hall%20-%20Window%20-%20Texture.bin"
		}
	]
}
