{
    "asset" : {
        "generator" : "Khronos glTF Blender I/O v3.4.50",
        "version" : "2.0"
    },
    "extensionsUsed" : [
        "KHR_materials_emissive_strength",
        "KHR_materials_specular",
        "KHR_materials_ior"
    ],
    "scene" : 0,
    "scenes" : [
        {
            "name" : "Scene",
            "nodes" : [
                0
            ]
        }
    ],
    "nodes" : [
        {
            "mesh" : 0,
            "name" : "Circle.003"
        }
    ],
    "materials" : [
        {
            "doubleSided" : true,
            "name" : "WhitePlastic",
            "pbrMetallicRoughness" : {
                "baseColorFactor" : [
                    0.800000011920929,
                    0.800000011920929,
                    0.800000011920929,
                    1
                ],
                "metallicFactor" : 0,
                "roughnessFactor" : 0.10000000149011612
            }
        },
        {
            "doubleSided" : true,
            "emissiveFactor" : [
                0,
                0.42820726165413253,
                1
            ],
            "extensions" : {
                "KHR_materials_emissive_strength" : {
                    "emissiveStrength" : 29.247171553549833
                }
            },
            "name" : "Material.010",
            "pbrMetallicRoughness" : {
                "baseColorFactor" : [
                    0,
                    0.48432230949401855,
                    0.8000000715255737,
                    1
                ],
                "metallicFactor" : 0,
                "roughnessFactor" : 0.5
            }
        },
        {
            "doubleSided" : true,
            "extensions" : {
                "KHR_materials_specular" : {
                    "specularColorFactor" : [
                        0,
                        0,
                        0
                    ]
                },
                "KHR_materials_ior" : {
                    "ior" : 1.4500000476837158
                }
            },
            "name" : "Material.009",
            "pbrMetallicRoughness" : {
                "baseColorFactor" : [
                    0,
                    0,
                    0,
                    1
                ],
                "metallicFactor" : 0
            }
        }
    ],
    "meshes" : [
        {
            "name" : "Circle.003",
            "primitives" : [
                {
                    "attributes" : {
                        "POSITION" : 0,
                        "TEXCOORD_0" : 1,
                        "NORMAL" : 2
                    },
                    "indices" : 3,
                    "material" : 0
                },
                {
                    "attributes" : {
                        "POSITION" : 4,
                        "TEXCOORD_0" : 5,
                        "NORMAL" : 6
                    },
                    "indices" : 7,
                    "material" : 1
                },
                {
                    "attributes" : {
                        "POSITION" : 8,
                        "TEXCOORD_0" : 9,
                        "NORMAL" : 10
                    },
                    "indices" : 11,
                    "material" : 2
                }
            ]
        }
    ],
    "accessors" : [
        {
            "bufferView" : 0,
            "componentType" : 5126,
            "count" : 957,
            "max" : [
                0.09173481166362762,
                0.06910530477762222,
                0.1301526427268982
            ],
            "min" : [
                -0.08153370022773743,
                -0.08198194950819016,
                -0.16607099771499634
            ],
            "type" : "VEC3"
        },
        {
            "bufferView" : 1,
            "componentType" : 5126,
            "count" : 957,
            "type" : "VEC2"
        },
        {
            "bufferView" : 2,
            "componentType" : 5126,
            "count" : 957,
            "type" : "VEC3"
        },
        {
            "bufferView" : 3,
            "componentType" : 5123,
            "count" : 3228,
            "type" : "SCALAR"
        },
        {
            "bufferView" : 4,
            "componentType" : 5126,
            "count" : 66,
            "max" : [
                0.08418455719947815,
                0.05582336336374283,
                0.09020309150218964
            ],
            "min" : [
                -0.07771077007055283,
                -0.03731491044163704,
                -0.08109275996685028
            ],
            "type" : "VEC3"
        },
        {
            "bufferView" : 5,
            "componentType" : 5126,
            "count" : 66,
            "type" : "VEC2"
        },
        {
            "bufferView" : 6,
            "componentType" : 5126,
            "count" : 66,
            "type" : "VEC3"
        },
        {
            "bufferView" : 7,
            "componentType" : 5123,
            "count" : 168,
            "type" : "SCALAR"
        },
        {
            "bufferView" : 8,
            "componentType" : 5126,
            "count" : 90,
            "max" : [
                0.07481471449136734,
                0.0624348521232605,
                0.04483574256300926
            ],
            "min" : [
                -0.06759288161993027,
                -0.006319205276668072,
                -0.16338452696800232
            ],
            "type" : "VEC3"
        },
        {
            "bufferView" : 9,
            "componentType" : 5126,
            "count" : 90,
            "type" : "VEC2"
        },
        {
            "bufferView" : 10,
            "componentType" : 5126,
            "count" : 90,
            "type" : "VEC3"
        },
        {
            "bufferView" : 11,
            "componentType" : 5123,
            "count" : 186,
            "type" : "SCALAR"
        }
    ],
    "bufferViews" : [
        {
            "buffer" : 0,
            "byteLength" : 11484,
            "byteOffset" : 0,
            "target" : 34962
        },
        {
            "buffer" : 0,
            "byteLength" : 7656,
            "byteOffset" : 11484,
            "target" : 34962
        },
        {
            "buffer" : 0,
            "byteLength" : 11484,
            "byteOffset" : 19140,
            "target" : 34962
        },
        {
            "buffer" : 0,
            "byteLength" : 6456,
            "byteOffset" : 30624,
            "target" : 34963
        },
        {
            "buffer" : 0,
            "byteLength" : 792,
            "byteOffset" : 37080,
            "target" : 34962
        },
        {
            "buffer" : 0,
            "byteLength" : 528,
            "byteOffset" : 37872,
            "target" : 34962
        },
        {
            "buffer" : 0,
            "byteLength" : 792,
            "byteOffset" : 38400,
            "target" : 34962
        },
        {
            "buffer" : 0,
            "byteLength" : 336,
            "byteOffset" : 39192,
            "target" : 34963
        },
        {
            "buffer" : 0,
            "byteLength" : 1080,
            "byteOffset" : 39528,
            "target" : 34962
        },
        {
            "buffer" : 0,
            "byteLength" : 720,
            "byteOffset" : 40608,
            "target" : 34962
        },
        {
            "buffer" : 0,
            "byteLength" : 1080,
            "byteOffset" : 41328,
            "target" : 34962
        },
        {
            "buffer" : 0,
            "byteLength" : 372,
            "byteOffset" : 42408,
            "target" : 34963
        }
    ],
    "buffers" : [
        {
            "byteLength" : 42780,
            "uri" : "testGauntlet.bin"
        }
    ]
}
